HIERARCHY
ROOT Hips
{
 OFFSET 0.000000 0.000000 0.000000
 CHANNELS 6 Xposition Yposition Zposition Yrotation Xrotation Zrotation
 JOINT Chest
 {
  OFFSET 0.000000 9.910571 -0.011835
  CHANNELS 3 Yrotation Xrotation Zrotation
  JOINT Chest2
  {
   OFFSET 0.000000 10.789473 0.021497
   CHANNELS 3 Yrotation Xrotation Zrotation
   JOINT Chest3
   {
    OFFSET 0.000000 9.748205 0.000000
    CHANNELS 3 Yrotation Xrotation Zrotation
    JOINT Chest4
    {
     OFFSET 0.000000 9.748205 0.000000
     CHANNELS 3 Yrotation Xrotation Zrotation
     JOINT Neck
     {
      OFFSET 0.000000 13.998479 0.000000
      CHANNELS 3 Yrotation Xrotation Zrotation
      JOINT Head
      {
       OFFSET 0.000000 9.082285 0.051121
       CHANNELS 3 Yrotation Xrotation Zrotation
       End Site
       {
        OFFSET 0.000000 17.246134 0.026702
       }
      }
     }
     JOINT RightCollar
     {
      OFFSET -3.284495 7.824262 0.000000
      CHANNELS 3 Yrotation Xrotation Zrotation
      JOINT RightShoulder
      {
       OFFSET -15.534540 0.000000 0.000000
       CHANNELS 3 Yrotation Xrotation Zrotation
       JOINT RightElbow
       {
        OFFSET 0.000000 -28.251216 0.000000
        CHANNELS 3 Yrotation Xrotation Zrotation
        JOINT RightWrist
        {
         OFFSET 0.000000 -23.418114 0.012537
         CHANNELS 3 Yrotation Xrotation Zrotation
         End Site
         {
          OFFSET 0.000000 -17.723959 0.000000
         }
        }
       }
      }
     }
     JOINT LeftCollar
     {
      OFFSET 3.284495 7.824262 0.000000
      CHANNELS 3 Yrotation Xrotation Zrotation
      JOINT LeftShoulder
      {
       OFFSET 15.534540 0.000000 0.000000
       CHANNELS 3 Yrotation Xrotation Zrotation
       JOINT LeftElbow
       {
        OFFSET 0.000000 -28.251216 0.000000
        CHANNELS 3 Yrotation Xrotation Zrotation
        JOINT LeftWrist
        {
         OFFSET 0.000000 -23.418114 0.012537
         CHANNELS 3 Yrotation Xrotation Zrotation
         End Site
         {
          OFFSET 0.000000 -17.723959 0.000000
         }
        }
       }
      }
     }
    }
   }
  }
 }
 JOINT RightHip
 {
  OFFSET -8.142657 0.057990 0.005917
  CHANNELS 3 Yrotation Xrotation Zrotation
  JOINT RightKnee
  {
   OFFSET 0.000000 -49.716894 0.008478
   CHANNELS 3 Yrotation Xrotation Zrotation
   JOINT RightAnkle
   {
    OFFSET 0.000000 -43.994153 0.004166
    CHANNELS 3 Yrotation Xrotation Zrotation
    JOINT RightToe
    {
     OFFSET 0.000000 -7.619154 17.822051
     CHANNELS 3 Yrotation Xrotation Zrotation
     End Site
     {
      OFFSET 0.000000 -1.595627 7.159905
     }
    }
   }
  }
 }
 JOINT LeftHip
 {
  OFFSET 8.142657 0.057990 0.005917
  CHANNELS 3 Yrotation Xrotation Zrotation
  JOINT LeftKnee
  {
   OFFSET 0.000000 -49.716894 0.008478
   CHANNELS 3 Yrotation Xrotation Zrotation
   JOINT LeftAnkle
   {
    OFFSET 0.000000 -43.994153 0.004166
    CHANNELS 3 Yrotation Xrotation Zrotation
    JOINT LeftToe
    {
     OFFSET 0.000000 -7.619154 17.822051
     CHANNELS 3 Yrotation Xrotation Zrotation
     End Site
     {
      OFFSET 0.000000 -1.595627 7.159905
     }
    }
   }
  }
 }
}
MOTION
Frames: 6
Frame Time: 0.008333
245.835488 56.891808 256.082090 -56.683997 -54.378034 3.038077 -1.567540 22.601188 -1.251396 -0.528539 10.030175 -0.626919 -0.528539 10.030175 -0.626919 -0.385002 7.523187 -0.460227 2.916589 16.268731 2.914381 4.372371 -6.001006 4.367473 0.339933 9.326854 10.999108 48.320820 -32.949603 -36.998899 8.344226 -6.321663 -7.628895 18.511491 -13.510552 -52.311860 -0.479924 6.790742 -10.143501 -28.566118 -36.085184 29.233195 -22.992296 -12.761746 12.702622 -25.766815 -12.354344 45.644465 -11.892684 -30.125046 -6.973379 -123.425559 70.500732 -139.542422 -5.632191 -18.139091 6.368521 0.039881 0.512428 0.013693 8.023250 -32.335170 8.110914 149.174915 79.439850 154.214400 2.178176 -9.843196 -2.328854 -0.127761 -0.375889 -0.051302
245.837932 56.890795 256.083329 -56.682091 -54.380425 3.039363 -1.566184 22.610585 -1.252077 -0.526744 10.033452 -0.627280 -0.526744 10.033452 -0.627280 -0.383650 7.525644 -0.460522 2.928841 16.283727 2.912256 4.396084 -5.973266 4.359295 0.327978 9.309894 11.005290 48.344554 -32.936600 -36.992179 8.277482 -6.312075 -7.649601 18.383496 -13.581519 -52.199779 -0.485548 6.770662 -10.128300 -28.573670 -36.068328 29.220762 -22.997071 -12.777803 12.692229 -25.872774 -12.350376 45.796678 -11.902940 -30.127901 -6.972662 -123.417648 70.497966 -139.540866 -5.636408 -18.139968 6.360744 0.047024 0.514627 0.019614 8.016188 -32.331518 8.106227 149.159822 79.437215 154.189217 2.189363 -9.845576 -2.323007 -0.138336 -0.374461 -0.056386
245.838249 56.888974 256.081034 -56.678186 -54.378034 3.029364 -1.555948 22.620471 -1.238792 -0.524271 10.036976 -0.626463 -0.524271 10.036976 -0.626463 -0.381809 7.528284 -0.459948 2.939588 16.296872 2.910239 4.416936 -5.948945 4.351841 0.310899 9.290206 11.005796 48.342758 -32.940854 -36.989436 8.193396 -6.325803 -7.625511 18.320896 -13.692690 -52.176927 -0.494224 6.747654 -10.117719 -28.599387 -36.056892 29.222047 -23.033803 -12.767663 12.706802 -25.923741 -12.342636 45.910624 -11.909583 -30.127813 -6.951817 -123.408357 70.494041 -139.530091 -5.657637 -18.139369 6.357308 0.068211 0.517518 0.028065 8.004827 -32.335854 8.107936 149.177519 79.435799 154.207667 2.207330 -9.848103 -2.325824 -0.145980 -0.372466 -0.061401
245.839994 56.887521 256.080757 -56.676126 -54.378827 3.030859 -1.555605 22.628282 -1.238652 -0.522966 10.039946 -0.625690 -0.522966 10.039946 -0.625690 -0.380841 7.530508 -0.459388 2.953417 16.312722 2.908359 4.443495 -5.919632 4.343573 0.299370 9.275625 11.003082 48.347675 -32.949332 -36.988688 8.117525 -6.327430 -7.604412 18.344853 -13.747724 -52.192253 -0.500111 6.728054 -10.113923 -28.612322 -36.044829 29.223185 -23.029033 -12.779884 12.692398 -26.018422 -12.309391 46.031813 -11.905317 -30.128656 -6.953680 -123.416941 70.491625 -139.538378 -5.661005 -18.140720 6.360957 0.071660 0.519080 0.028407 8.000307 -32.334730 8.105531 149.175269 79.435575 154.198031 2.210691 -9.848846 -2.322741 -0.150451 -0.371837 -0.062435
245.840208 56.886344 256.078817 -56.676777 -54.379033 3.028957 -1.548543 22.639259 -1.232764 -0.519910 10.043743 -0.624121 -0.519910 10.043743 -0.624121 -0.378576 7.533352 -0.458261 2.965220 16.323992 2.904438 4.466964 -5.898777 4.332191 0.290054 9.262275 11.006600 48.344520 -32.962647 -36.995368 8.076447 -6.329103 -7.595678 18.328055 -13.813318 -52.195784 -0.508823 6.708596 -10.103561 -28.640029 -36.038598 29.223969 -23.031798 -12.769249 12.707480 -26.061349 -12.291694 46.151035 -11.907574 -30.126416 -6.938175 -123.403604 70.484904 -139.528715 -5.674285 -18.142389 6.365394 0.081642 0.522225 0.032103 7.998800 -32.335908 8.107750 149.159480 79.432897 154.183248 2.208749 -9.850692 -2.323167 -0.154990 -0.370928 -0.063579
245.841166 56.884936 256.077983 -56.674594 -54.378511 3.029072 -1.545961 22.647926 -1.232587 -0.518620 10.046819 -0.623866 -0.518620 10.046819 -0.623866 -0.377612 7.535657 -0.458089 2.979276 16.336744 2.903666 4.493500 -5.875223 4.325874 0.281164 9.252131 11.009556 48.347263 -32.972935 -37.006279 8.056576 -6.331880 -7.583562 18.268868 -13.873109 -52.213687 -0.514660 6.691631 -10.095666 -28.653904 -36.034934 29.220155 -23.007643 -12.777721 12.695108 -26.128555 -12.266354 46.272132 -11.917458 -30.128609 -6.932950 -123.394131 70.485561 -139.528140 -5.674135 -18.144546 6.365022 0.080427 0.526091 0.032805 7.996525 -32.336507 8.104768 149.139525 79.430914 154.161187 2.209008 -9.852451 -2.324472 -0.157216 -0.369372 -0.063332
